<svg width="162" height="162" viewBox="0 0 162 162" fill="none" xmlns="http://www.w3.org/2000/svg">
<circle cx="81.5" cy="81.5" r="62.5" fill="#0B192F"/>
<path d="M88.2727 82.9432V59.7273H94.3068V99H88.2727V92.3523H87.8636C86.9432 94.3466 85.5114 96.0426 83.5682 97.4403C81.625 98.821 79.1705 99.5114 76.2045 99.5114C73.75 99.5114 71.5682 98.9744 69.6591 97.9006C67.75 96.8097 66.25 95.1733 65.1591 92.9915C64.0682 90.7926 63.5227 88.0227 63.5227 84.6818V59.7273H69.5568V84.2727C69.5568 87.1364 70.358 89.4205 71.9602 91.125C73.5795 92.8295 75.642 93.6818 78.1477 93.6818C79.6477 93.6818 81.1733 93.2983 82.7244 92.5312C84.2926 91.7642 85.6051 90.5881 86.6619 89.0028C87.7358 87.4176 88.2727 85.3977 88.2727 82.9432Z" fill="#72FFDB"/>
<path d="M15.1821 119L81 5L146.818 119H15.1821Z" stroke="#72FFDB" stroke-width="5"/>
</svg>
