<svg width="132" height="132" viewBox="0 0 132 132" fill="none" xmlns="http://www.w3.org/2000/svg">
<path d="M73.7869 71.483V48.7273H83.0426V88H74.0682V81.0199H73.6591C72.7727 83.2187 71.3153 85.017 69.2869 86.4148C67.2756 87.8125 64.7955 88.5114 61.8466 88.5114C59.2727 88.5114 56.9972 87.9403 55.0199 86.7983C53.0597 85.6392 51.5256 83.9602 50.4176 81.7614C49.3097 79.5455 48.7557 76.8693 48.7557 73.733V48.7273H58.0114V72.3011C58.0114 74.7898 58.6932 76.767 60.0568 78.233C61.4205 79.6989 63.2102 80.4318 65.4261 80.4318C66.7898 80.4318 68.1108 80.0994 69.3892 79.4347C70.6676 78.7699 71.7159 77.7812 72.5341 76.4688C73.3693 75.1392 73.7869 73.4773 73.7869 71.483Z" fill="#72FFDB"/>
<circle cx="66" cy="66" r="62" stroke="#72FFDB" stroke-width="8"/>
</svg>
